<svg width="547" height="389" viewBox="0 0 547 389" fill="none" xmlns="http://www.w3.org/2000/svg">
<path d="M3.22266 228C9.77539 198.674 9.77539 161.721 3.33008 132.395H41.5723C94.209 132.502 99.043 174.074 59.6191 183.85C67.6758 199.641 80.1367 219.621 88.8379 228H51.0254C51.8848 218.117 48.4473 201.574 39.4238 185.998H28.8965C29.0039 201.037 31.3672 217.58 33.623 228H3.22266ZM48.7695 136.477C32.5488 132.395 28.7891 157.854 28.7891 182.131H39.1016C56.5039 182.131 64.8828 169.885 61.5527 153.986C61.3379 152.482 60.9082 150.979 60.3711 149.475C57.793 141.848 53.4961 137.658 48.7695 136.477ZM118.701 178.586H126.65C136.426 178.586 143.516 175.686 152.002 163.654C151.035 176.545 151.035 183.85 152.002 196.74C143.73 184.924 136.318 181.809 126.65 181.809H118.701C117.627 181.809 116.982 182.453 116.982 183.42C116.982 195.559 118.379 210.812 121.172 224.777C140.723 224.777 158.77 215.324 164.893 195.129C165.645 208.02 166.826 216.828 169.297 228H91.416C97.9688 198.674 97.9688 161.721 91.416 132.395H169.297C166.826 143.566 165.645 152.375 164.893 165.266C158.77 144.963 140.83 135.617 121.172 135.617C118.809 147.326 117.412 160.109 117.09 176.867C117.09 177.941 117.734 178.586 118.701 178.586ZM211.836 230.148C201.738 230.148 190.244 227.033 182.832 226.496C179.824 226.281 176.709 226.604 173.594 228C175.312 220.373 177.139 209.953 178.105 195.129C185.303 218.654 201.309 226.926 211.621 226.926C226.875 226.926 236.758 208.234 219.57 196.418C214.092 192.658 207.646 189.758 203.35 187.609C188.848 180.627 173.594 172.033 173.594 156.027C173.594 138.947 193.682 130.246 211.729 130.354C221.719 130.354 230.742 133.361 238.047 133.898C241.162 134.113 244.17 133.791 247.285 132.395C245.566 140.021 243.74 150.441 242.881 165.266C235.684 141.74 223.76 133.684 213.447 133.684C202.061 133.684 186.592 153.986 213.877 165.91C231.387 173.645 253.945 180.627 254.053 199.318C254.053 210.705 246.641 219.836 236.758 224.777C229.775 228.322 220.859 230.148 211.836 230.148ZM331.719 190.295C331.719 211.242 323.447 230.148 297.666 230.148C279.404 230.148 260.498 216.076 260.498 190.617C260.498 161.828 259.102 147.971 255.664 132.395H286.064C282.842 147.111 281.23 160.217 281.23 190.295C281.23 226.926 311.094 232.941 322.266 215.539C326.67 208.771 328.604 199.318 328.604 190.295C328.604 153.771 322.803 140.129 313.135 132.395H341.064C335.693 139.914 331.719 148.723 331.719 190.295ZM367.383 228H345.361C351.914 198.674 351.914 161.721 345.361 132.395H375.762C380.703 151.193 392.734 173.215 405.625 190.188L429.258 132.395H451.602C445.156 161.721 445.156 198.674 451.602 228H421.201C426.25 205.012 427.432 177.189 424.531 152.16L392.949 228C389.834 216.828 376.299 182.238 355.029 152.268C354.277 159.035 353.74 166.018 353.633 173C352.988 193.195 356.963 210.275 367.383 228ZM485.332 178.586H493.281C503.057 178.586 510.146 175.686 518.633 163.654C517.666 176.545 517.666 183.85 518.633 196.74C510.361 184.924 502.949 181.809 493.281 181.809H485.332C484.258 181.809 483.613 182.453 483.613 183.42C483.613 195.559 485.01 210.812 487.803 224.777C507.354 224.777 525.4 215.324 531.523 195.129C532.275 208.02 533.457 216.828 535.928 228H458.047C464.6 198.674 464.6 161.721 458.047 132.395H535.928C533.457 143.566 532.275 152.375 531.523 165.266C525.4 144.963 507.461 135.617 487.803 135.617C485.439 147.326 484.043 160.109 483.721 176.867C483.721 177.941 484.365 178.586 485.332 178.586Z" fill="white" fill-opacity="0.62"/>
<path d="M3.22266 336C9.77539 306.674 9.77539 269.721 3.33008 240.395H41.5723C94.209 240.502 99.043 282.074 59.6191 291.85C67.6758 307.641 80.1367 327.621 88.8379 336H51.0254C51.8848 326.117 48.4473 309.574 39.4238 293.998H28.8965C29.0039 309.037 31.3672 325.58 33.623 336H3.22266ZM48.7695 244.477C32.5488 240.395 28.7891 265.854 28.7891 290.131H39.1016C56.5039 290.131 64.8828 277.885 61.5527 261.986C61.3379 260.482 60.9082 258.979 60.3711 257.475C57.793 249.848 53.4961 245.658 48.7695 244.477ZM118.701 286.586H126.65C136.426 286.586 143.516 283.686 152.002 271.654C151.035 284.545 151.035 291.85 152.002 304.74C143.73 292.924 136.318 289.809 126.65 289.809H118.701C117.627 289.809 116.982 290.453 116.982 291.42C116.982 303.559 118.379 318.812 121.172 332.777C140.723 332.777 158.77 323.324 164.893 303.129C165.645 316.02 166.826 324.828 169.297 336H91.416C97.9688 306.674 97.9688 269.721 91.416 240.395H169.297C166.826 251.566 165.645 260.375 164.893 273.266C158.77 252.963 140.83 243.617 121.172 243.617C118.809 255.326 117.412 268.109 117.09 284.867C117.09 285.941 117.734 286.586 118.701 286.586ZM211.836 338.148C201.738 338.148 190.244 335.033 182.832 334.496C179.824 334.281 176.709 334.604 173.594 336C175.312 328.373 177.139 317.953 178.105 303.129C185.303 326.654 201.309 334.926 211.621 334.926C226.875 334.926 236.758 316.234 219.57 304.418C214.092 300.658 207.646 297.758 203.35 295.609C188.848 288.627 173.594 280.033 173.594 264.027C173.594 246.947 193.682 238.246 211.729 238.354C221.719 238.354 230.742 241.361 238.047 241.898C241.162 242.113 244.17 241.791 247.285 240.395C245.566 248.021 243.74 258.441 242.881 273.266C235.684 249.74 223.76 241.684 213.447 241.684C202.061 241.684 186.592 261.986 213.877 273.91C231.387 281.645 253.945 288.627 254.053 307.318C254.053 318.705 246.641 327.836 236.758 332.777C229.775 336.322 220.859 338.148 211.836 338.148ZM331.719 298.295C331.719 319.242 323.447 338.148 297.666 338.148C279.404 338.148 260.498 324.076 260.498 298.617C260.498 269.828 259.102 255.971 255.664 240.395H286.064C282.842 255.111 281.23 268.217 281.23 298.295C281.23 334.926 311.094 340.941 322.266 323.539C326.67 316.771 328.604 307.318 328.604 298.295C328.604 261.771 322.803 248.129 313.135 240.395H341.064C335.693 247.914 331.719 256.723 331.719 298.295ZM367.383 336H345.361C351.914 306.674 351.914 269.721 345.361 240.395H375.762C380.703 259.193 392.734 281.215 405.625 298.188L429.258 240.395H451.602C445.156 269.721 445.156 306.674 451.602 336H421.201C426.25 313.012 427.432 285.189 424.531 260.16L392.949 336C389.834 324.828 376.299 290.238 355.029 260.268C354.277 267.035 353.74 274.018 353.633 281C352.988 301.195 356.963 318.275 367.383 336ZM485.332 286.586H493.281C503.057 286.586 510.146 283.686 518.633 271.654C517.666 284.545 517.666 291.85 518.633 304.74C510.361 292.924 502.949 289.809 493.281 289.809H485.332C484.258 289.809 483.613 290.453 483.613 291.42C483.613 303.559 485.01 318.812 487.803 332.777C507.354 332.777 525.4 323.324 531.523 303.129C532.275 316.02 533.457 324.828 535.928 336H458.047C464.6 306.674 464.6 269.721 458.047 240.395H535.928C533.457 251.566 532.275 260.375 531.523 273.266C525.4 252.963 507.461 243.617 487.803 243.617C485.439 255.326 484.043 268.109 483.721 284.867C483.721 285.941 484.365 286.586 485.332 286.586Z" fill="url(#paint0_linear_4032_80)" fill-opacity="0.23"/>
<path d="M3.22266 336C9.77539 306.674 9.77539 269.721 3.33008 240.395H41.5723C94.209 240.502 99.043 282.074 59.6191 291.85C67.6758 307.641 80.1367 327.621 88.8379 336H51.0254C51.8848 326.117 48.4473 309.574 39.4238 293.998H28.8965C29.0039 309.037 31.3672 325.58 33.623 336H3.22266ZM48.7695 244.477C32.5488 240.395 28.7891 265.854 28.7891 290.131H39.1016C56.5039 290.131 64.8828 277.885 61.5527 261.986C61.3379 260.482 60.9082 258.979 60.3711 257.475C57.793 249.848 53.4961 245.658 48.7695 244.477ZM118.701 286.586H126.65C136.426 286.586 143.516 283.686 152.002 271.654C151.035 284.545 151.035 291.85 152.002 304.74C143.73 292.924 136.318 289.809 126.65 289.809H118.701C117.627 289.809 116.982 290.453 116.982 291.42C116.982 303.559 118.379 318.812 121.172 332.777C140.723 332.777 158.77 323.324 164.893 303.129C165.645 316.02 166.826 324.828 169.297 336H91.416C97.9688 306.674 97.9688 269.721 91.416 240.395H169.297C166.826 251.566 165.645 260.375 164.893 273.266C158.77 252.963 140.83 243.617 121.172 243.617C118.809 255.326 117.412 268.109 117.09 284.867C117.09 285.941 117.734 286.586 118.701 286.586ZM211.836 338.148C201.738 338.148 190.244 335.033 182.832 334.496C179.824 334.281 176.709 334.604 173.594 336C175.312 328.373 177.139 317.953 178.105 303.129C185.303 326.654 201.309 334.926 211.621 334.926C226.875 334.926 236.758 316.234 219.57 304.418C214.092 300.658 207.646 297.758 203.35 295.609C188.848 288.627 173.594 280.033 173.594 264.027C173.594 246.947 193.682 238.246 211.729 238.354C221.719 238.354 230.742 241.361 238.047 241.898C241.162 242.113 244.17 241.791 247.285 240.395C245.566 248.021 243.74 258.441 242.881 273.266C235.684 249.74 223.76 241.684 213.447 241.684C202.061 241.684 186.592 261.986 213.877 273.91C231.387 281.645 253.945 288.627 254.053 307.318C254.053 318.705 246.641 327.836 236.758 332.777C229.775 336.322 220.859 338.148 211.836 338.148ZM331.719 298.295C331.719 319.242 323.447 338.148 297.666 338.148C279.404 338.148 260.498 324.076 260.498 298.617C260.498 269.828 259.102 255.971 255.664 240.395H286.064C282.842 255.111 281.23 268.217 281.23 298.295C281.23 334.926 311.094 340.941 322.266 323.539C326.67 316.771 328.604 307.318 328.604 298.295C328.604 261.771 322.803 248.129 313.135 240.395H341.064C335.693 247.914 331.719 256.723 331.719 298.295ZM367.383 336H345.361C351.914 306.674 351.914 269.721 345.361 240.395H375.762C380.703 259.193 392.734 281.215 405.625 298.188L429.258 240.395H451.602C445.156 269.721 445.156 306.674 451.602 336H421.201C426.25 313.012 427.432 285.189 424.531 260.16L392.949 336C389.834 324.828 376.299 290.238 355.029 260.268C354.277 267.035 353.74 274.018 353.633 281C352.988 301.195 356.963 318.275 367.383 336ZM485.332 286.586H493.281C503.057 286.586 510.146 283.686 518.633 271.654C517.666 284.545 517.666 291.85 518.633 304.74C510.361 292.924 502.949 289.809 493.281 289.809H485.332C484.258 289.809 483.613 290.453 483.613 291.42C483.613 303.559 485.01 318.812 487.803 332.777C507.354 332.777 525.4 323.324 531.523 303.129C532.275 316.02 533.457 324.828 535.928 336H458.047C464.6 306.674 464.6 269.721 458.047 240.395H535.928C533.457 251.566 532.275 260.375 531.523 273.266C525.4 252.963 507.461 243.617 487.803 243.617C485.439 255.326 484.043 268.109 483.721 284.867C483.721 285.941 484.365 286.586 485.332 286.586Z" fill="url(#paint1_linear_4032_80)" fill-opacity="0.23"/>
<path d="M3.22266 119C9.77539 89.6738 9.77539 52.7207 3.33008 23.3945H41.5723C94.209 23.502 99.043 65.0742 59.6191 74.8496C67.6758 90.6406 80.1367 110.621 88.8379 119H51.0254C51.8848 109.117 48.4473 92.5742 39.4238 76.998H28.8965C29.0039 92.0371 31.3672 108.58 33.623 119H3.22266ZM48.7695 27.4766C32.5488 23.3945 28.7891 48.8535 28.7891 73.1309H39.1016C56.5039 73.1309 64.8828 60.8848 61.5527 44.9863C61.3379 43.4824 60.9082 41.9785 60.3711 40.4746C57.793 32.8477 53.4961 28.6582 48.7695 27.4766ZM118.701 69.5859H126.65C136.426 69.5859 143.516 66.6855 152.002 54.6543C151.035 67.5449 151.035 74.8496 152.002 87.7402C143.73 75.9238 136.318 72.8086 126.65 72.8086H118.701C117.627 72.8086 116.982 73.4531 116.982 74.4199C116.982 86.5586 118.379 101.812 121.172 115.777C140.723 115.777 158.77 106.324 164.893 86.1289C165.645 99.0195 166.826 107.828 169.297 119H91.416C97.9688 89.6738 97.9688 52.7207 91.416 23.3945H169.297C166.826 34.5664 165.645 43.375 164.893 56.2656C158.77 35.9629 140.83 26.6172 121.172 26.6172C118.809 38.3262 117.412 51.1094 117.09 67.8672C117.09 68.9414 117.734 69.5859 118.701 69.5859ZM211.836 121.148C201.738 121.148 190.244 118.033 182.832 117.496C179.824 117.281 176.709 117.604 173.594 119C175.312 111.373 177.139 100.953 178.105 86.1289C185.303 109.654 201.309 117.926 211.621 117.926C226.875 117.926 236.758 99.2344 219.57 87.418C214.092 83.6582 207.646 80.7578 203.35 78.6094C188.848 71.627 173.594 63.0332 173.594 47.0273C173.594 29.9473 193.682 21.2461 211.729 21.3535C221.719 21.3535 230.742 24.3613 238.047 24.8984C241.162 25.1133 244.17 24.791 247.285 23.3945C245.566 31.0215 243.74 41.4414 242.881 56.2656C235.684 32.7402 223.76 24.6836 213.447 24.6836C202.061 24.6836 186.592 44.9863 213.877 56.9102C231.387 64.6445 253.945 71.627 254.053 90.3184C254.053 101.705 246.641 110.836 236.758 115.777C229.775 119.322 220.859 121.148 211.836 121.148ZM331.719 81.2949C331.719 102.242 323.447 121.148 297.666 121.148C279.404 121.148 260.498 107.076 260.498 81.6172C260.498 52.8281 259.102 38.9707 255.664 23.3945H286.064C282.842 38.1113 281.23 51.2168 281.23 81.2949C281.23 117.926 311.094 123.941 322.266 106.539C326.67 99.7715 328.604 90.3184 328.604 81.2949C328.604 44.7715 322.803 31.1289 313.135 23.3945H341.064C335.693 30.9141 331.719 39.7227 331.719 81.2949ZM367.383 119H345.361C351.914 89.6738 351.914 52.7207 345.361 23.3945H375.762C380.703 42.1934 392.734 64.2148 405.625 81.1875L429.258 23.3945H451.602C445.156 52.7207 445.156 89.6738 451.602 119H421.201C426.25 96.0117 427.432 68.1895 424.531 43.1602L392.949 119C389.834 107.828 376.299 73.2383 355.029 43.2676C354.277 50.0352 353.74 57.0176 353.633 64C352.988 84.1953 356.963 101.275 367.383 119ZM485.332 69.5859H493.281C503.057 69.5859 510.146 66.6855 518.633 54.6543C517.666 67.5449 517.666 74.8496 518.633 87.7402C510.361 75.9238 502.949 72.8086 493.281 72.8086H485.332C484.258 72.8086 483.613 73.4531 483.613 74.4199C483.613 86.5586 485.01 101.812 487.803 115.777C507.354 115.777 525.4 106.324 531.523 86.1289C532.275 99.0195 533.457 107.828 535.928 119H458.047C464.6 89.6738 464.6 52.7207 458.047 23.3945H535.928C533.457 34.5664 532.275 43.375 531.523 56.2656C525.4 35.9629 507.461 26.6172 487.803 26.6172C485.439 38.3262 484.043 51.1094 483.721 67.8672C483.721 68.9414 484.365 69.5859 485.332 69.5859Z" fill="white" fill-opacity="0.82"/>
<defs>
<linearGradient id="paint0_linear_4032_80" x1="200.255" y1="271" x2="201.538" y2="335.99" gradientUnits="userSpaceOnUse">
<stop stop-color="white"/>
<stop offset="1" stop-color="#FDB6DC"/>
</linearGradient>
<linearGradient id="paint1_linear_4032_80" x1="200.255" y1="271" x2="201.538" y2="335.99" gradientUnits="userSpaceOnUse">
<stop stop-color="white"/>
<stop offset="1" stop-color="#FDB6DC"/>
</linearGradient>
</defs>
</svg>
