<?xml version="1.0" encoding="UTF-8"?>
<svg xmlns="http://www.w3.org/2000/svg" xmlns:xlink="http://www.w3.org/1999/xlink" width="30px" height="30px" viewBox="0 0 10 10" version="1.1">
<g id="surface1">
<path style=" stroke:none;fill-rule:evenodd;fill:rgb(0%,0%,0%);fill-opacity:1;" d="M 5.082031 10 L 4.917969 10 C 4.917969 8.6875 4.429688 7.535156 3.445312 6.554688 C 2.464844 5.570312 1.316406 5.082031 0 5.082031 L 0 4.917969 C 1.316406 4.917969 2.464844 4.429688 3.445312 3.441406 C 4.429688 2.457031 4.917969 1.308594 4.917969 0 L 5.082031 0 C 5.082031 1.3125 5.570312 2.464844 6.554688 3.445312 C 7.535156 4.429688 8.683594 4.917969 10 4.917969 L 10 5.082031 C 8.6875 5.082031 7.535156 5.570312 6.554688 6.554688 C 5.570312 7.535156 5.082031 8.683594 5.082031 10 Z M 5.082031 10 "/>
</g>
</svg>
